<svg width="14" height="14" viewBox="0 0 14 14" fill="none" xmlns="http://www.w3.org/2000/svg">
<path d="M12.1875 0C12.6855 0 13.125 0.439453 13.125 0.966797V12.1875C13.125 12.7148 12.6855 13.125 12.1875 13.125H0.908203C0.410156 13.125 0 12.7148 0 12.1875V0.966797C0 0.439453 0.410156 0 0.908203 0H12.1875ZM3.95508 11.25V5.00977H2.02148V11.25H3.95508ZM2.98828 4.13086C3.60352 4.13086 4.10156 3.63281 4.10156 3.01758C4.10156 2.40234 3.60352 1.875 2.98828 1.875C2.34375 1.875 1.8457 2.40234 1.8457 3.01758C1.8457 3.63281 2.34375 4.13086 2.98828 4.13086ZM11.25 11.25V7.82227C11.25 6.15234 10.8691 4.83398 8.90625 4.83398C7.96875 4.83398 7.32422 5.36133 7.06055 5.85938H7.03125V5.00977H5.18555V11.25H7.11914V8.17383C7.11914 7.35352 7.26562 6.5625 8.29102 6.5625C9.28711 6.5625 9.28711 7.5 9.28711 8.20312V11.25H11.25Z" fill="white"/>
</svg>
