<svg width="20" height="20" viewBox="0 0 20 20" fill="none" xmlns="http://www.w3.org/2000/svg">
<path d="M8.33333 16.6667C10.2562 16.6667 12.024 16.0052 13.4344 14.9083L18.0135 19.4875L19.4865 18.0146L14.9073 13.4354C16.0052 12.024 16.6667 10.2562 16.6667 8.33333C16.6667 3.73854 12.9281 0 8.33333 0C3.73854 0 0 3.73854 0 8.33333C0 12.9281 3.73854 16.6667 8.33333 16.6667ZM8.33333 2.08333C11.7802 2.08333 14.5833 4.88646 14.5833 8.33333C14.5833 11.7802 11.7802 14.5833 8.33333 14.5833C4.88646 14.5833 2.08333 11.7802 2.08333 8.33333C2.08333 4.88646 4.88646 2.08333 8.33333 2.08333Z" fill="#A77C2C"/>
</svg>
